<svg xmlns="http://www.w3.org/2000/svg" viewBox="0 0 500 500"><g id="freepik--Floor--inject-255"><ellipse id="freepik--floor--inject-255" cx="250" cy="346.53" rx="230.12" ry="132.84" style="fill:#f5f5f5"></ellipse></g><g id="freepik--Shadows--inject-255"><ellipse id="freepik--Shadow--inject-255" cx="402.11" cy="373.46" rx="57.53" ry="33.22" style="fill:#e0e0e0"></ellipse><path id="freepik--shadow--inject-255" d="M196.14,445.23,53.41,362.83c-2.34-1.35-2.34-3.54,0-4.9L259.75,238.81a9.32,9.32,0,0,1,8.48,0l142.69,82.38c2.34,1.35,2.34,3.54,0,4.89L204.62,445.23A9.38,9.38,0,0,1,196.14,445.23Z" style="fill:#e0e0e0"></path></g><g id="freepik--Plant--inject-255"><g id="freepik--Plants--inject-255"><path d="M431.15,354.41c-1.23-8.44,1.92-40.59,9.07-52.83s19-25.08,29.32-23.16c9.56,1.78,10.32,13.88.42,23.41s-25.06,21.9-27.92,36.3l-7.8,24.51Z" style="fill:#00D1FF"></path><path d="M431.15,354.41c-1.23-8.44,1.92-40.59,9.07-52.83s19-25.08,29.32-23.16c9.56,1.78,10.32,13.88.42,23.41s-25.06,21.9-27.92,36.3l-7.8,24.51Z" style="opacity:0.1"></path><path d="M433.44,351.76a.62.62,0,0,0,.46-.59c.44-29.66,19.41-57.14,32.35-64.79a.62.62,0,1,0-.63-1.07c-13.19,7.8-32.52,35.73-33,65.84a.62.62,0,0,0,.61.63A.47.47,0,0,0,433.44,351.76Z" style="fill:#fff"></path><path d="M438.08,367.24c.66-4.94,4.12-13.46,11.94-21.9,9.58-10.34,25.48-16,27.7-22,2.65-7.22-3.41-12.15-13.75-8.86-13.89,4.42-29.39,21.76-29.19,44.07Z" style="fill:#00D1FF"></path><path d="M435.29,362.57a.64.64,0,0,0,.47-.49c5.24-26,26.2-39.95,34.76-42.35A.63.63,0,0,0,471,319a.61.61,0,0,0-.77-.43c-9.46,2.65-30.3,16.8-35.64,43.31a.62.62,0,0,0,.49.73A.57.57,0,0,0,435.29,362.57Z" style="fill:#fff"></path></g></g><g id="freepik--Clouds--inject-255"><g id="freepik--clouds--inject-255"><path d="M146.31,74.42l-7.61,4.4a8.68,8.68,0,0,0,.06-1v-2.2c0-3.93-2.76-5.52-6.16-3.56a12.15,12.15,0,0,0-3.67,3.53c-.55-4.94-4.43-6.78-9.13-4.06-5.09,2.94-9.22,10.08-9.22,16v3.3a8.79,8.79,0,0,0,.78,3.82L105,98.25a7.55,7.55,0,0,0-3.42,5.92c0,2.18,1.53,3.06,3.42,2l41.27-23.83a7.55,7.55,0,0,0,3.42-5.91C149.73,74.22,148.2,73.33,146.31,74.42Z" style="fill:#e6e6e6"></path><path d="M50.14,84.25,54.34,81V71.76c0-7.34,5.85-15.86,12.2-19.53h0c6.36-3.67,11.51-.69,11.51,6.65v1.34a16.3,16.3,0,0,1,5.34-5.34h0c4.57-2.64,8.28-.5,8.28,4.78v.61l5.86-3.38c3-1.74,5.45-.33,5.45,3.15a12.06,12.06,0,0,1-5.45,9.44L50.14,96.84c-3,1.74-5.46.33-5.46-3.15A12,12,0,0,1,50.14,84.25Z" style="fill:#e6e6e6"></path></g></g><g id="freepik--Device--inject-255"><g id="freepik--Laptop--inject-255"><path d="M62.22,351.49a9.93,9.93,0,0,0,4.62,7.68l129.49,74.76a10.25,10.25,0,0,0,9.25,0L397.49,323.14a8.69,8.69,0,0,0,0-15.35L268,233a10.19,10.19,0,0,0-9.25,0L66.84,343.82A9.91,9.91,0,0,0,62.22,351.49Z" style="fill:#37474f"></path><path d="M201,425v10a9.37,9.37,0,0,1-4.62-1.1L66.84,359.17a8.66,8.66,0,0,1-.47-15.05c-2.07,1.48-1.91,3.66.47,5l129.5,74.77A9.37,9.37,0,0,0,201,425Z" style="fill:#263238"></path><path d="M57.88,344a9.91,9.91,0,0,1-4.33-7.84V181.61a10.22,10.22,0,0,1,4.62-8L250.08,62.82a9.94,9.94,0,0,1,9-.17,9.94,9.94,0,0,1,4.33,7.84V225a10.21,10.21,0,0,1-4.62,8L66.84,343.82A9.93,9.93,0,0,1,57.88,344Z" style="fill:#455a64"></path><path d="M66.3,344.1a10,10,0,0,1-8.42-.12,9.91,9.91,0,0,1-4.33-7.84V181.61a9.28,9.28,0,0,1,1.36-4.55l8.66,5h0a9.47,9.47,0,0,0-1.35,4.54V341.15C62.22,343.88,64,345.11,66.3,344.1Z" style="fill:#263238"></path><path d="M62.22,186.62V341.15c0,3,2.07,4.14,4.62,2.67L258.75,233a10.21,10.21,0,0,0,4.62-8V70.49c0-2.94-2.06-4.14-4.62-2.66L66.84,178.61A10.24,10.24,0,0,0,62.22,186.62Z" style="fill:#37474f"></path><path d="M66.84,349.15l129.49,74.77a10.25,10.25,0,0,0,9.25,0L397.49,313.13c2.55-1.48,2.55-3.87,0-5.34L268,233a10.19,10.19,0,0,0-9.25,0L66.84,343.82C64.29,345.29,64.29,347.68,66.84,349.15Z" style="fill:#455a64"></path><path d="M69.33,184.55,254.88,77.45c1.53-.88,2.78-.16,2.78,1.61V221.63a6.13,6.13,0,0,1-2.78,4.8L69.33,333.53c-1.53.88-2.78.16-2.78-1.61V189.35A6.13,6.13,0,0,1,69.33,184.55Z" style="fill:#00D1FF"></path><path d="M69.33,184.55,254.88,77.45c1.53-.88,2.78-.16,2.78,1.61V221.63a6.13,6.13,0,0,1-2.78,4.8L69.33,333.53c-1.53.88-2.78.16-2.78-1.61V189.35A6.13,6.13,0,0,1,69.33,184.55Z" style="opacity:0.4"></path><path d="M81.87,345.15l179.2-103.44a5.08,5.08,0,0,1,4.62,0l8.41,4.85c1.27.74,1.27,1.93,0,2.67L94.88,352.66a5.08,5.08,0,0,1-4.62,0l-8.39-4.84C80.6,347.08,80.6,345.89,81.87,345.15Z" style="fill:#37474f"></path><path d="M103.55,357.67,282.74,254.22a5.08,5.08,0,0,1,4.62,0l51.74,29.87c1.28.74,1.28,1.94,0,2.67l-179,103.32a5.14,5.14,0,0,1-4.63,0l-51.91-29.75C102.28,359.6,102.27,358.4,103.55,357.67Z" style="fill:#263238"></path><path d="M261,298.21l5.64-3.26c.24-.14.25-.36,0-.5L260.72,291a1,1,0,0,0-.86,0l-5.65,3.26c-.23.14-.24.36,0,.49l6,3.44A1,1,0,0,0,261,298.21Zm-9.67-12.1-5.64,3.26a.26.26,0,0,0,0,.49l6,3.44a1,1,0,0,0,.86,0l5.65-3.26a.26.26,0,0,0,0-.5l-6-3.44A1,1,0,0,0,251.35,286.11Zm-18.23,10.52-9.54,5.51c-.24.14-.25.37,0,.5l6,3.44a1,1,0,0,0,.86,0l9.55-5.51c.24-.14.24-.36,0-.5l-6-3.43A.93.93,0,0,0,233.12,296.63Zm10-5.76-5.65,3.26c-.24.14-.24.36,0,.49l6,3.44a1,1,0,0,0,.86,0l5.64-3.26c.24-.14.24-.36,0-.5l-6-3.44A.94.94,0,0,0,243.11,290.87ZM221,303.65l-5.64,3.25c-.24.14-.24.37,0,.5l6,3.44a1,1,0,0,0,.86,0l5.64-3.25c.24-.14.24-.36,0-.5l-6-3.44A1,1,0,0,0,221,303.65Zm-8.24,4.76-5.65,3.26a.26.26,0,0,0,0,.49L213,315.6a.93.93,0,0,0,.86,0l5.64-3.25c.24-.14.24-.36,0-.5l-5.95-3.44A1,1,0,0,0,212.73,308.41Zm23.38,14,5.64-3.26c.24-.14.24-.36,0-.49l-5.95-3.44a1,1,0,0,0-.86,0l-5.65,3.26a.26.26,0,0,0,0,.5l5.95,3.44A1,1,0,0,0,236.11,322.41Zm-8.25,4.76,5.65-3.26c.24-.14.24-.36,0-.49L227.56,320a1,1,0,0,0-.86,0l-5.64,3.26c-.24.14-.24.36,0,.5l5.95,3.44A1,1,0,0,0,227.86,327.17Zm-8.24,4.76,5.64-3.26a.26.26,0,0,0,0-.49l-6-3.44a.93.93,0,0,0-.86,0L212.81,328c-.24.14-.24.36,0,.5l6,3.44A1,1,0,0,0,219.62,331.93Zm-8.25,4.76,5.64-3.26c.24-.13.25-.36,0-.49l-6-3.44a1,1,0,0,0-.86,0l-5.64,3.25c-.24.14-.25.36,0,.5l5.95,3.44A1,1,0,0,0,211.37,336.69ZM252.77,303l5.65-3.26a.26.26,0,0,0,0-.5l-6-3.43a.93.93,0,0,0-.86,0L246,299c-.24.14-.24.36,0,.49l5.95,3.44A1,1,0,0,0,252.77,303Zm-8.41,14.68,12.58-7.27c.24-.14.24-.36,0-.49l-14.46-8.35a1,1,0,0,0-.86,0l-6.51,3.76c-.24.14-.24.36,0,.5l7.66,4.42a.26.26,0,0,1,0,.49l-5.21,3c-.24.14-.24.36,0,.5l6,3.43A.93.93,0,0,0,244.36,317.65Zm-39.88-4.48-5.64,3.26a.26.26,0,0,0,0,.49l5.95,3.44a1,1,0,0,0,.86,0l5.65-3.26a.26.26,0,0,0,0-.5l-5.95-3.44A1,1,0,0,0,204.48,313.17Zm-8.24,4.76-5.65,3.26c-.24.14-.24.36,0,.49l6,3.44a1,1,0,0,0,.86,0l5.64-3.26c.24-.14.24-.36,0-.5l-6-3.44A.94.94,0,0,0,196.24,317.93ZM152.79,370a1,1,0,0,0,.86,0l5.64-3.26c.24-.14.25-.36,0-.5l-6-3.43a.93.93,0,0,0-.86,0l-5.64,3.26c-.24.14-.25.36,0,.49Zm-22.52-14-5.64,3.25c-.24.14-.25.36,0,.5l5.95,3.44a1,1,0,0,0,.86,0l5.64-3.26c.24-.13.25-.36,0-.49l-6-3.44A.93.93,0,0,0,130.27,356Zm11.85,10.34a.93.93,0,0,0,.86,0l5.64-3.26c.24-.14.24-.36,0-.49l-6-3.44a.93.93,0,0,0-.86,0l-5.64,3.26c-.24.14-.24.36,0,.5Zm24.38,6.06,5.64-3.26a.26.26,0,0,0,0-.49l-6-3.44a1,1,0,0,0-.86,0l-5.64,3.25c-.24.14-.24.36,0,.5l6,3.44A1,1,0,0,0,166.5,372.42Zm-9.11,4.77a1,1,0,0,0,.86,0l5.64-3.26c.24-.13.25-.36,0-.49L158,370a1,1,0,0,0-.86,0l-5.64,3.25c-.24.14-.25.36,0,.5Zm-18.87-25.94-5.65,3.26a.26.26,0,0,0,0,.5l5.95,3.44a1,1,0,0,0,.86,0l5.64-3.26c.24-.14.24-.36,0-.49l-6-3.44A.94.94,0,0,0,138.52,351.25Zm41.22-23.8-5.64,3.26c-.24.14-.24.36,0,.49l6,3.44a.93.93,0,0,0,.86,0l5.64-3.26c.24-.14.24-.36,0-.5l-6-3.43A.93.93,0,0,0,179.74,327.45Zm-33,19-5.64,3.26c-.24.14-.24.36,0,.5l5.95,3.43a.93.93,0,0,0,.86,0l5.65-3.26c.24-.14.24-.36,0-.49l-5.95-3.44A1,1,0,0,0,146.76,346.49ZM188,322.69,182.35,326c-.24.14-.25.36,0,.49l5.95,3.44a.93.93,0,0,0,.86,0l5.64-3.26c.24-.14.25-.36,0-.5l-6-3.43A.93.93,0,0,0,188,322.69Zm-16.49,9.52-5.64,3.26c-.24.14-.25.36,0,.5l6,3.43a.93.93,0,0,0,.86,0l5.64-3.26c.24-.14.25-.36,0-.5l-5.95-3.43A.93.93,0,0,0,171.5,332.21ZM163.25,337l-5.64,3.26c-.24.14-.24.36,0,.5l6,3.43a.93.93,0,0,0,.86,0l5.64-3.26c.24-.14.24-.36,0-.49l-6-3.44A.93.93,0,0,0,163.25,337ZM155,341.73,149.37,345c-.24.14-.25.36,0,.5l5.95,3.43a.93.93,0,0,0,.86,0l5.64-3.26c.24-.14.25-.36,0-.49l-5.95-3.44A1,1,0,0,0,155,341.73Zm39.87,4.48,5.64-3.25c.24-.14.25-.36,0-.5L194.58,339a1,1,0,0,0-.86,0l-5.64,3.25c-.24.14-.25.36,0,.5l6,3.44A1,1,0,0,0,194.88,346.21Zm74.7-70.62-5.64,3.25c-.24.14-.25.36,0,.5l5.95,3.44a1,1,0,0,0,.86,0l5.64-3.26c.24-.13.25-.36,0-.49l-5.95-3.44A.93.93,0,0,0,269.58,275.59Zm-10,5.76L254,284.61a.26.26,0,0,0,0,.49l5.95,3.44a1,1,0,0,0,.86,0l5.64-3.25c.24-.14.24-.36,0-.5l-6-3.44A1,1,0,0,0,259.6,281.35Zm18.22-10.53-5.64,3.26c-.24.14-.24.36,0,.5l6,3.44a1,1,0,0,0,.86,0l5.64-3.26c.24-.14.24-.36,0-.49l-6-3.44A1,1,0,0,0,277.82,270.82ZM233.68,314l5.64-3.26a.26.26,0,0,0,0-.49l-6-3.44a1,1,0,0,0-.86,0l-5.65,3.26a.26.26,0,0,0,0,.5l5.95,3.44A1,1,0,0,0,233.68,314Zm53.25-47.93a1,1,0,0,0-.86,0l-5.64,3.26c-.24.14-.25.36,0,.5l5.95,3.44a1,1,0,0,0,.86,0l5.64-3.26c.24-.14.25-.36,0-.49Zm-83.8,75.39,5.64-3.25c.24-.14.24-.37,0-.5l-6-3.44a1,1,0,0,0-.86,0l-5.64,3.25c-.24.14-.24.36,0,.5l6,3.44A1,1,0,0,0,203.13,341.45Zm101.11-58.38,5.65-3.26a.26.26,0,0,0,0-.49l-6-3.44a1,1,0,0,0-.86,0l-5.64,3.25c-.24.14-.24.36,0,.5l6,3.44A.94.94,0,0,0,304.24,283.07Zm-16.75-.15,5.65-3.26a.26.26,0,0,0,0-.49l-5.95-3.44a1,1,0,0,0-.86,0L280.69,279c-.24.14-.25.36,0,.5l5.95,3.44A1,1,0,0,0,287.49,282.92ZM295.43,271a.94.94,0,0,0-.85,0l-5.65,3.26a.26.26,0,0,0,0,.5l5.95,3.44a1,1,0,0,0,.86,0l5.64-3.26a.26.26,0,0,0,0-.49Zm1.74-1,14.46,8.35a1,1,0,0,0,.86,0l5.64-3.26c.24-.13.25-.36,0-.49l-14.46-8.35a1,1,0,0,0-.86,0l-5.64,3.26C296.94,269.61,296.94,269.83,297.17,270ZM278.08,280.5l-5.64,3.25c-.24.14-.24.36,0,.5l6,3.44a1,1,0,0,0,.86,0l5.64-3.25c.24-.14.24-.37,0-.5l-6-3.44A1,1,0,0,0,278.08,280.5ZM216,316.33l-5.64,3.25c-.24.14-.24.36,0,.5l6,3.44a1,1,0,0,0,.86,0l5.64-3.25c.24-.14.24-.37,0-.5l-6-3.44A1,1,0,0,0,216,316.33Zm79.12-28.49a1,1,0,0,0,.86,0l5.64-3.25c.24-.14.24-.37,0-.5l-5.95-3.44a1,1,0,0,0-.86,0l-5.65,3.25a.26.26,0,0,0,0,.5Zm-70.87,23.73-5.64,3.25c-.24.14-.24.36,0,.5l5.95,3.44a1,1,0,0,0,.86,0l5.65-3.26a.26.26,0,0,0,0-.49l-6-3.44A.93.93,0,0,0,224.27,311.57ZM161,365.26a1,1,0,0,0,.86,0l5.64-3.26c.24-.14.24-.36,0-.5l-6-3.44a.94.94,0,0,0-.85,0l-5.65,3.26c-.24.14-.24.36,0,.49Zm-11-10.85-5.64,3.26c-.24.14-.25.36,0,.49l6,3.44a.93.93,0,0,0,.86,0l5.64-3.26c.24-.14.25-.36,0-.5l-6-3.43A.93.93,0,0,0,150.06,354.41Zm20.08,6.08,5.65-3.25a.26.26,0,0,0,0-.5l-5.95-3.44a1,1,0,0,0-.86,0l-5.64,3.26a.26.26,0,0,0,0,.49l5.95,3.44A.93.93,0,0,0,170.14,360.49Zm8.25-4.76,5.64-3.25c.24-.14.25-.36,0-.5l-5.95-3.44a1,1,0,0,0-.86,0l-5.65,3.26a.26.26,0,0,0,0,.49l5.95,3.44A.93.93,0,0,0,178.39,355.73Zm8.25-4.76,5.64-3.25c.24-.14.24-.36,0-.5l-6-3.44a1,1,0,0,0-.86,0L179.83,347c-.24.14-.24.37,0,.5l6,3.44A1,1,0,0,0,186.64,351Zm-28.34-1.32-5.64,3.26c-.24.14-.24.36,0,.49l6,3.44a.93.93,0,0,0,.86,0l5.64-3.26c.24-.14.24-.36,0-.5l-6-3.43A.93.93,0,0,0,158.3,349.65Zm8.25-4.76-5.64,3.26c-.24.14-.25.36,0,.49l5.95,3.44a1,1,0,0,0,.86,0l5.65-3.26c.23-.14.24-.36,0-.5l-6-3.43A.93.93,0,0,0,166.55,344.89Zm33-19-5.64,3.25c-.24.14-.24.37,0,.5l6,3.44a1,1,0,0,0,.86,0l5.64-3.25c.24-.14.24-.36,0-.5l-6-3.44A1,1,0,0,0,199.53,325.85Zm-8.24,4.76-5.64,3.26c-.24.13-.25.36,0,.49l6,3.44a.93.93,0,0,0,.86,0l5.64-3.25c.24-.14.25-.36,0-.5l-5.95-3.44A1,1,0,0,0,191.29,330.61Zm16.49-9.52-5.64,3.25c-.24.14-.25.36,0,.5l6,3.44a1,1,0,0,0,.86,0l5.64-3.25c.24-.14.25-.36,0-.5l-6-3.44A1,1,0,0,0,207.78,321.09Zm-33,19-5.65,3.26c-.24.14-.24.36,0,.49l5.95,3.44a1,1,0,0,0,.86,0l5.64-3.26c.24-.14.24-.36,0-.5l-6-3.44A1,1,0,0,0,174.8,340.13Zm8.24-4.76-5.64,3.26a.26.26,0,0,0,0,.49l6,3.44a.94.94,0,0,0,.85,0l5.65-3.26c.24-.14.24-.36,0-.5l-6-3.44A1,1,0,0,0,183,335.37Zm-8.3,32.29,5.65-3.26a.26.26,0,0,0,0-.49l-5.95-3.44a.93.93,0,0,0-.86,0l-5.64,3.25c-.24.14-.24.36,0,.5l5.95,3.44A1,1,0,0,0,174.74,367.66Zm-45.9-3.45-6-3.44a1,1,0,0,0-.86,0L116.38,364c-.24.14-.24.36,0,.5l6,3.44a1,1,0,0,0,.86,0l5.64-3.26A.26.26,0,0,0,128.84,364.21Zm11.54,3.16-5.95-3.44a.93.93,0,0,0-.86,0l-8.68,5c-.24.14-.25.36,0,.5l6,3.44a1,1,0,0,0,.86,0l8.68-5C140.61,367.72,140.62,367.5,140.38,367.37Zm-20.56-9.87-6-3.44a1,1,0,0,0-.86,0l-6.94,4c-.24.14-.25.36,0,.5l6,3.44a1,1,0,0,0,.86,0l7-4C120.05,357.85,120.05,357.63,119.82,357.5Zm5.32-3.08a.93.93,0,0,0,.86,0l5.64-3.26c.24-.14.24-.36,0-.5l-6-3.43a.91.91,0,0,0-.85,0l-5.65,3.26c-.24.14-.24.36,0,.49ZM151.06,371l-6-3.43a.93.93,0,0,0-.86,0l-10.85,6.26c-.24.14-.24.37,0,.5l6,3.44a1,1,0,0,0,.86,0l10.85-6.26C151.29,371.38,151.29,371.16,151.06,371Zm4.6,7.17-6-3.44a1,1,0,0,0-.86,0l-6.94,4a.26.26,0,0,0,0,.49l6,3.44a.93.93,0,0,0,.86,0l6.94-4C155.89,378.55,155.89,378.33,155.66,378.19ZM186.45,319a1,1,0,0,0,.86,0l5.64-3.26a.26.26,0,0,0,0-.49l-6-3.44a1,1,0,0,0-.86,0l-5.64,3.25c-.24.14-.24.36,0,.5ZM170,328.55a.94.94,0,0,0,.85,0l5.65-3.25a.26.26,0,0,0,0-.5l-6-3.44a1,1,0,0,0-.86,0L164,324.61c-.24.14-.24.36,0,.5Zm-36.58,21.11a.93.93,0,0,0,.86,0l5.65-3.26a.26.26,0,0,0,0-.5l-5.95-3.43a.93.93,0,0,0-.86,0l-5.64,3.26c-.24.14-.24.36,0,.49Zm44.82-25.87a1,1,0,0,0,.86,0l5.64-3.25c.24-.14.25-.37,0-.5l-6-3.44a1,1,0,0,0-.86,0l-5.64,3.25c-.24.14-.25.36,0,.5Zm-16.49,9.52a1,1,0,0,0,.86,0l5.64-3.25c.24-.14.24-.36,0-.5l-5.95-3.44a1,1,0,0,0-.86,0l-5.65,3.26a.26.26,0,0,0,0,.49ZM160,378.66a1,1,0,0,0-.86,0l-8.68,5c-.24.14-.25.36,0,.49l5.95,3.44a1,1,0,0,0,.86,0l8.68-5a.26.26,0,0,0,0-.49Zm-10.07-38.52a1,1,0,0,0,.86,0l5.64-3.26c.24-.14.24-.36,0-.5l-6-3.44a1,1,0,0,0-.86,0l-5.64,3.26c-.24.14-.24.36,0,.49Zm-8.25,4.76a.93.93,0,0,0,.86,0l5.64-3.26c.24-.14.25-.36,0-.5l-5.95-3.43a.93.93,0,0,0-.86,0L135.68,341c-.23.14-.24.36,0,.49Zm171.08-54.44a1,1,0,0,0-.86,0l-13.89,8a.26.26,0,0,0,0,.49l6,3.44a.93.93,0,0,0,.86,0l13.88-8c.24-.14.25-.36,0-.5ZM294.48,301a.93.93,0,0,0-.86,0L288,304.25c-.24.14-.24.36,0,.5l5.95,3.43a.93.93,0,0,0,.86,0l5.65-3.26a.26.26,0,0,0,0-.5ZM183,362.9l5.64-3.26c.24-.14.25-.36,0-.49l-5.95-3.44a1,1,0,0,0-.86,0L176.18,359c-.23.14-.24.36,0,.5l5.95,3.44A1,1,0,0,0,183,362.9Zm95-52.39a1,1,0,0,0-.86,0l-5.64,3.26c-.24.14-.25.36,0,.5l5.95,3.43a.93.93,0,0,0,.86,0l5.64-3.26c.24-.14.25-.36,0-.49Zm43-24.81a1,1,0,0,0-.86,0L314.45,289a.26.26,0,0,0,0,.49l6,3.44a1,1,0,0,0,.86,0l5.64-3.25c.24-.14.24-.36,0-.5Zm14.2-1.32L320.69,276a1,1,0,0,0-.86,0l-5.64,3.25c-.24.14-.24.36,0,.5l14.46,8.35a1,1,0,0,0,.86,0l5.64-3.25C335.38,284.74,335.39,284.52,335.15,284.38Zm-88,43.92a.93.93,0,0,0-.86,0l-6.95,4c-.24.14-.24.36,0,.5l6,3.44a1,1,0,0,0,.86,0l6.94-4c.24-.14.25-.36,0-.49Zm20.83-12a1,1,0,0,0-.86,0l-8.68,5c-.24.14-.25.36,0,.49l6,3.44a1,1,0,0,0,.86,0l8.68-5c.24-.13.25-.36,0-.49Zm-39.93,23.05a1,1,0,0,0-.86,0l-46.43,26.81c-.24.14-.25.36,0,.49l5.95,3.44a.93.93,0,0,0,.86,0L234,343.26a.26.26,0,0,0,0-.5Zm-49,28.32a.93.93,0,0,0-.86,0l-6.94,4c-.24.14-.25.36,0,.5l6,3.43a.93.93,0,0,0,.86,0l7-4a.26.26,0,0,0,0-.5Zm58.59-33.83a.93.93,0,0,0-.86,0l-6.94,4c-.24.14-.25.36,0,.5l6,3.44a1,1,0,0,0,.86,0l6.94-4c.24-.13.25-.36,0-.49Zm-68.14,39.34a1,1,0,0,0-.86,0l-6.94,4c-.24.14-.24.36,0,.5l6,3.44a.94.94,0,0,0,.85,0l6.95-4c.24-.14.24-.36,0-.49Zm87.23-50.36a.93.93,0,0,0-.86,0l-6.94,4c-.24.14-.24.36,0,.5l6,3.43a.93.93,0,0,0,.86,0l6.94-4c.24-.14.24-.36,0-.5Zm29.51-17a.93.93,0,0,0-.86,0L279.73,309c-.24.14-.24.36,0,.5l6,3.43a.93.93,0,0,0,.86,0l5.64-3.26c.24-.14.24-.36,0-.49Zm18.27-13,5.65-3.25c.24-.14.24-.36,0-.5l-6-3.44a1,1,0,0,0-.86,0l-5.64,3.25c-.24.14-.24.37,0,.5l6,3.44A.94.94,0,0,0,304.5,292.74Zm-35.23.7,5.64-3.25c.24-.14.24-.36,0-.5l-6-3.44a1,1,0,0,0-.86,0l-5.64,3.26c-.24.14-.24.36,0,.49l6,3.44A.93.93,0,0,0,269.27,293.44ZM249,324.82l16.49-9.53a.26.26,0,0,0,0-.49l-6-3.44a.93.93,0,0,0-.86,0l-16.49,9.52a.26.26,0,0,0,0,.49l6,3.44A1,1,0,0,0,249,324.82Zm46.44-27.31a1,1,0,0,0,.86,0l5.64-3.25c.24-.14.24-.36,0-.5l-6-3.44a1,1,0,0,0-.86,0l-5.65,3.26a.26.26,0,0,0,0,.49Zm-7.65-4.92,5.65-3.25c.23-.14.24-.36,0-.5l-5.95-3.44a1,1,0,0,0-.86,0L281,288.66c-.24.14-.25.36,0,.5l5.95,3.44A1,1,0,0,0,287.75,292.59Zm-47,37,5.64-3.26c.24-.14.24-.36,0-.5l-6-3.44a1,1,0,0,0-.86,0l-5.65,3.26c-.24.14-.24.36,0,.49l5.95,3.44A1,1,0,0,0,240.71,329.58ZM277.17,308a.93.93,0,0,0,.86,0l5.64-3.26c.24-.14.25-.36,0-.5l-5.95-3.43a.93.93,0,0,0-.86,0l-5.64,3.26c-.24.14-.25.36,0,.5Zm-77.69,45.35,5.64-3.26c.24-.14.25-.36,0-.49l-5.95-3.44a.93.93,0,0,0-.86,0l-5.64,3.26c-.24.14-.25.36,0,.5l6,3.43A.93.93,0,0,0,199.48,353.38Zm8.25-4.76,5.64-3.26c.24-.14.24-.36,0-.49l-6-3.44a.93.93,0,0,0-.86,0l-5.64,3.26c-.24.14-.24.36,0,.5l6,3.43A.93.93,0,0,0,207.73,348.62Zm-16.49,9.52,5.64-3.26c.24-.14.24-.36,0-.49l-6-3.44a1,1,0,0,0-.86,0l-5.64,3.26c-.24.14-.24.36,0,.5l6,3.44A1,1,0,0,0,191.24,358.14Zm33-19,5.64-3.26c.24-.14.24-.36,0-.5l-6-3.43a.91.91,0,0,0-.85,0l-5.65,3.26c-.24.14-.24.36,0,.49l6,3.44A.93.93,0,0,0,224.22,339.1ZM216,343.86l5.64-3.26c.24-.14.25-.36,0-.5l-6-3.43a.93.93,0,0,0-.86,0l-5.64,3.26c-.24.14-.25.36,0,.5l6,3.43A.93.93,0,0,0,216,343.86Zm16.49-9.52,5.65-3.26a.26.26,0,0,0,0-.5l-6-3.43a.93.93,0,0,0-.86,0l-5.64,3.26c-.24.14-.24.36,0,.49l5.95,3.44A.93.93,0,0,0,232.46,334.34ZM273.86,266a.93.93,0,0,0,.86,0l5.65-3.26c.24-.14.24-.36,0-.49l-1.58-.92a1,1,0,0,0-.86,0l-5.64,3.26c-.24.14-.24.36,0,.5ZM233.09,292.1a.94.94,0,0,0,.85,0l5.65-3.26c.24-.14.24-.36,0-.5l-6-3.44a1,1,0,0,0-.86,0l-5.64,3.26a.26.26,0,0,0,0,.49Zm16.49-9.52a1,1,0,0,0,.86,0l5.64-3.25c.24-.14.24-.36,0-.5l-6-3.44a1,1,0,0,0-.86,0l-5.64,3.26a.26.26,0,0,0,0,.49ZM223,297.91a.93.93,0,0,0,.86,0l5.64-3.26c.24-.14.24-.36,0-.5l-6-3.43a.93.93,0,0,0-.86,0L217.07,294c-.24.14-.24.36,0,.5Zm18.31-10.57a.93.93,0,0,0,.86,0l5.64-3.25c.24-.14.25-.36,0-.5l-6-3.44a1,1,0,0,0-.86,0l-5.64,3.26c-.24.13-.25.36,0,.49Zm-34.8,20.09a.91.91,0,0,0,.85,0l5.65-3.26c.24-.14.24-.36,0-.49l-6-3.44a.93.93,0,0,0-.86,0l-5.64,3.26c-.24.14-.24.36,0,.5Zm8.24-4.76a.93.93,0,0,0,.86,0l5.64-3.26c.24-.14.25-.36,0-.49l-5.95-3.44a.93.93,0,0,0-.86,0l-5.64,3.26c-.24.14-.25.36,0,.5Zm42.6-27.12a.93.93,0,0,0,.86,0l5.65-3.26c.23-.14.24-.36,0-.49l-1.58-.92a1,1,0,0,0-.86,0l-5.64,3.25c-.24.14-.25.36,0,.5Zm24.74-14.28a.93.93,0,0,0,.86,0l5.64-3.26c.24-.14.25-.36,0-.5L287,256.6a1,1,0,0,0-.86,0l-5.65,3.26a.26.26,0,0,0,0,.5Zm12.51,7.22a.93.93,0,0,0,.86,0l5.64-3.26c.24-.14.24-.36,0-.49l-6-3.44a.91.91,0,0,0-.85,0l-5.65,3.26c-.24.14-.24.36,0,.5ZM312.75,288l5.64-3.25c.24-.14.25-.36,0-.5l-5.95-3.44a1,1,0,0,0-.86,0L306,284.05c-.24.14-.25.36,0,.5l5.95,3.44A1,1,0,0,0,312.75,288Zm-47.13-17.19a.93.93,0,0,0,.86,0l5.64-3.26c.24-.14.24-.36,0-.49l-1.59-.92a.93.93,0,0,0-.86,0L264,269.38c-.24.14-.24.36,0,.5Zm-67.34,41.4a.93.93,0,0,0,.86,0l5.64-3.26c.24-.14.24-.36,0-.49L198.84,305a1,1,0,0,0-.86,0l-5.65,3.26c-.23.14-.24.36,0,.5Z" style="fill:#455a64"></path><path d="M228.48,360.67l50.82-29.34a6.14,6.14,0,0,1,5.54,0L314,348.15c1.53.89,1.53,2.32,0,3.21l-50.81,29.33a6.1,6.1,0,0,1-5.55,0l-29.14-16.82C227,363,227,361.55,228.48,360.67Z" style="fill:#263238"></path></g></g><g id="freepik--Shield--inject-255"><g id="freepik--shield--inject-255"><g id="freepik--shield--inject-255"><path d="M219.88,138.24c-15.88,14.27-29.6,13.52-38.18,6.91-8.57,16.52-22.29,33.1-38.17,37.17l-9.07,24.5s4.86,5.6,4.86,19a66.8,66.8,0,0,1-2.25,16.63c-1.65,6.61-3.78,13.45-3.78,24.88,0,7.74,1,15.27,4.94,22.12a27.3,27.3,0,0,0,9.93,10l-13.79-8a27.39,27.39,0,0,1-10.45-10.25C120,274.34,119,266.82,119,259.07c0-11.42,2.13-18.27,3.78-24.89A66.52,66.52,0,0,0,125,217.56c0-13.4-4.86-19-4.86-19l9.06-24.5c15.88-4.07,29.6-20.65,38.17-37.17,8.58,6.61,22.3,7.36,38.18-6.91Z" style="fill:#00D1FF"></path><path d="M172.42,139.8l-5-2.91A22,22,0,0,0,172.42,139.8Z" style="fill:#fff;opacity:0.8"></path><path d="M205.57,130c-13.07,11.74-24.67,13.31-33.15,9.82l9.28,5.35c8.58,6.61,22.3,7.36,38.18-6.91Z" style="fill:#fff;opacity:0.85"></path><path d="M167.39,136.89c-8.57,16.52-22.29,33.1-38.17,37.17l14.31,8.26c15.88-4.07,29.6-20.65,38.17-37.17Z" style="fill:#fff;opacity:0.65"></path><polygon points="129.22 174.06 120.16 198.56 134.46 206.82 143.53 182.32 129.22 174.06" style="fill:#fff;opacity:0.55"></polygon><path d="M138.23,289.45c-3.92-6.85-4.94-14.38-4.94-22.12,0-11.43,2.13-18.27,3.78-24.88a66.8,66.8,0,0,0,2.25-16.63c0-13.4-4.86-19-4.86-19l-14.3-8.26s4.86,5.6,4.86,19a66.52,66.52,0,0,1-2.26,16.62c-1.65,6.62-3.78,13.47-3.78,24.89,0,7.75,1,15.27,4.94,22.12a27.39,27.39,0,0,0,10.45,10.25l13.79,8A27.3,27.3,0,0,1,138.23,289.45Z" style="fill:#fff;opacity:0.4"></path><path d="M138.23,289.45c-3.92-6.85-4.94-14.38-4.94-22.12,0-11.43,2.13-18.27,3.78-24.88a66.8,66.8,0,0,0,2.25-16.63c0-13.4-4.86-19-4.86-19l-14.3-8.26s4.86,5.6,4.86,19a66.52,66.52,0,0,1-2.26,16.62c-1.65,6.62-3.78,13.47-3.78,24.89,0,7.75,1,15.27,4.94,22.12a27.39,27.39,0,0,0,10.45,10.25l13.79,8A27.3,27.3,0,0,1,138.23,289.45Z" style="opacity:0.05"></path><path d="M181.7,306.23c-23.72.27-37.31-6-43.48-16.78-3.91-6.85-4.93-14.38-4.93-22.13,0-11.42,2.12-18.25,3.78-24.87a66.72,66.72,0,0,0,2.25-16.62c0-13.4-4.86-19-4.86-19l9.07-24.51c15.88-4.07,29.6-20.66,38.17-37.17,8.58,6.61,22.3,7.36,38.18-6.91l9.07,14a68.86,68.86,0,0,0-4.87,24.61,40.12,40.12,0,0,0,2.26,14c1.65,4.7,3.78,9.09,3.78,20.51a82.13,82.13,0,0,1-4.94,27.83C219,257.15,205.43,279.1,181.7,306.23Z" style="fill:#00D1FF"></path><path d="M181.7,306.23c-23.72.27-37.31-6-43.48-16.78-3.91-6.85-4.93-14.38-4.93-22.13,0-11.42,2.12-18.25,3.78-24.87a66.72,66.72,0,0,0,2.25-16.62c0-13.4-4.86-19-4.86-19l9.07-24.51c15.88-4.07,29.6-20.66,38.17-37.17,8.58,6.61,22.3,7.36,38.18-6.91l9.07,14a68.86,68.86,0,0,0-4.87,24.61,40.12,40.12,0,0,0,2.26,14c1.65,4.7,3.78,9.09,3.78,20.51a82.13,82.13,0,0,1-4.94,27.83C219,257.15,205.43,279.1,181.7,306.23Z" style="fill:#fff;opacity:0.75"></path><path d="M178.89,300.07c-18.37-.22-30.25-4.82-35.31-13.67-2.86-5-4.13-10.88-4.13-19.08a75.86,75.86,0,0,1,3-21.13c.19-.76.39-1.5.57-2.25a71.85,71.85,0,0,0,2.44-18.11c0-9.77-2.34-16.16-4.2-19.7l7-18.8c17-5.91,29.29-22.7,35.8-33.71a28.1,28.1,0,0,0,11.09,2.24c7.68,0,15.49-2.86,23.29-8.51l3.65,5.66a75.83,75.83,0,0,0-4.16,23.88,46.32,46.32,0,0,0,2.6,16.07c.19.54.39,1.08.59,1.62,1.46,4,2.84,7.77,2.84,16.84a76.4,76.4,0,0,1-4.6,25.82C213.29,254.86,199.68,276,178.89,300.07Z" style="fill:#00D1FF"></path><path d="M178.89,300.07c-18.37-.22-30.25-4.82-35.31-13.67-2.86-5-4.13-10.88-4.13-19.08a75.86,75.86,0,0,1,3-21.13c.19-.76.39-1.5.57-2.25a71.85,71.85,0,0,0,2.44-18.11c0-9.77-2.34-16.16-4.2-19.7l7-18.8c17-5.91,29.29-22.7,35.8-33.71a28.1,28.1,0,0,0,11.09,2.24c7.68,0,15.49-2.86,23.29-8.51l3.65,5.66a75.83,75.83,0,0,0-4.16,23.88,46.32,46.32,0,0,0,2.6,16.07c.19.54.39,1.08.59,1.62,1.46,4,2.84,7.77,2.84,16.84a76.4,76.4,0,0,1-4.6,25.82C213.29,254.86,199.68,276,178.89,300.07Z" style="fill:#fff;opacity:0.4"></path><path d="M178.89,300.07c-18.37-.22-30.25-4.82-35.31-13.67-2.86-5-4.13-10.88-4.13-19.08a75.86,75.86,0,0,1,3-21.13c.19-.76.39-1.5.57-2.25a71.85,71.85,0,0,0,2.44-18.11c0-9.77-2.34-16.16-4.2-19.7l7-18.8c17-5.91,29.29-22.7,35.8-33.71a28.1,28.1,0,0,0,11.09,2.24c7.68,0,15.49-2.86,23.29-8.51l3.65,5.66a75.83,75.83,0,0,0-4.16,23.88,46.32,46.32,0,0,0,2.6,16.07c.19.54.39,1.08.59,1.62,1.46,4,2.84,7.77,2.84,16.84a76.4,76.4,0,0,1-4.6,25.82C213.29,254.86,199.68,276,178.89,300.07Z" style="opacity:0.15"></path><path d="M147.79,291.49c6.26,5.52,16.66,8.41,31.1,8.58l-9.21-5.25A67.59,67.59,0,0,1,147.79,291.49Z" style="fill:#fff;opacity:0.8"></path><polygon points="217.28 150.24 222.08 153.01 218.43 147.35 216.34 148.79 217.28 150.24" style="opacity:0.15"></polygon><path d="M215.72,190.19a46.32,46.32,0,0,1-2.6-16.07,75.83,75.83,0,0,1,4.16-23.88l-.94-1.45c-7.1,4.69-14.2,7.07-21.2,7.07a28.1,28.1,0,0,1-11.09-2.24c-6.51,11-18.8,27.8-35.8,33.71l-7,18.8c1.86,3.54,4.2,9.93,4.2,19.7a71.85,71.85,0,0,1-2.44,18.11c-.18.75-.38,1.49-.57,2.25a75.86,75.86,0,0,0-3,21.13c0,8.2,1.27,14.08,4.13,19.08a20.61,20.61,0,0,0,6,6.5q9.21,4.2,24.54,4.4c20.78-24.08,34.39-45.21,40.46-62.83a76.35,76.35,0,0,0,4.6-25.82c0-9.07-1.39-12.84-2.85-16.84C216.11,191.27,215.91,190.73,215.72,190.19Z" style="fill:#455a64"></path><path d="M148.25,187.33l-7,18.8c1.86,3.54,4.2,9.93,4.2,19.7a71.85,71.85,0,0,1-2.44,18.11c-.18.75-.38,1.49-.57,2.25a75.86,75.86,0,0,0-3,21.13c0,8.2,1.27,14.08,4.13,19.08a20.61,20.61,0,0,0,6,6.5q9.21,4.2,24.54,4.4V228l10-3V153.62a110,110,0,0,1-10,14.24C167.44,175.89,158.74,183.68,148.25,187.33Z" style="fill:#37474f"></path></g><path id="freepik--shadow--inject-255" d="M198.12,202.42a3.19,3.19,0,0,0-.38-.55l-.05-.06a4.4,4.4,0,0,0-1-.81l-3.33-1.92a7.23,7.23,0,0,0-1.92-.74,10,10,0,0,0-1.22-.19v-9.86c0-4.95-1.87-8.86-5.13-10.74s-7-1.56-10.83.68c-7.12,4.11-12.69,14.14-12.69,22.83V212.7l-6.64,3.83a4,4,0,0,0-.56.39l-.18.14,0,0a2.43,2.43,0,0,0-.91,1.8v39.93a2.24,2.24,0,0,0,.07.51,2.94,2.94,0,0,0,1.25,1.62l.37.24,1.63.94,1.71,1a7.15,7.15,0,0,0,2.14.77,9,9,0,0,0,6.05-.78l30.23-17.45a2.88,2.88,0,0,0,1.7-2.36V203.37A2.06,2.06,0,0,0,198.12,202.42Zm-30.05-1.36c0-6.36,4.32-14.22,9.43-17.17,1.74-1,3.3-1.26,4.29-.68,1.17.67,1.86,2.57,1.86,5.08v11.64l-8.59,5-7,4Z" style="fill:#263238"></path><g id="freepik--Padlock--inject-255"><path d="M201.88,205.13a2.87,2.87,0,0,0-1.7-2.36l-3.33-1.93a9,9,0,0,0-8.19,0l-30.23,17.45a2.89,2.89,0,0,0-1.7,2.37h0v39.93h0a2.86,2.86,0,0,0,1.7,2.37l3.33,1.93a9.09,9.09,0,0,0,8.19,0l30.23-17.46a2.88,2.88,0,0,0,1.7-2.36h0V205.13Z" style="fill:#00D1FF"></path><path d="M161.76,225,158.43,223c-2.27-1.3-2.27-3.42,0-4.73l30.23-17.45a9,9,0,0,1,8.19,0l3.33,1.93c2.26,1.3,2.26,3.42,0,4.72L170,225A9.09,9.09,0,0,1,161.76,225Z" style="fill:#fff;opacity:0.4"></path><path d="M165.86,225.93v39.93a8.39,8.39,0,0,1-4.1-1L158.42,263a2.85,2.85,0,0,1-1.69-2.38V220.66a2.86,2.86,0,0,0,1.69,2.36l3.34,1.93A8.29,8.29,0,0,0,165.86,225.93Z" style="opacity:0.1"></path><path d="M187.86,245.68l-7.22,4.17,1.12-13.06c-.86-.46-1.41-1.58-1.41-3.19,0-2.88,1.74-6.22,3.9-7.46s3.9.07,3.9,3a9.82,9.82,0,0,1-1.41,4.82Z" style="fill:#455a64"></path><polygon points="187.86 245.68 181.32 241.91 180.64 249.85 187.86 245.68" style="fill:#37474f"></polygon><path d="M184.25,226.14a8.5,8.5,0,0,0-3.33,4.42l5.82,3.36h0a9.82,9.82,0,0,0,1.41-4.82C188.15,226.21,186.41,224.89,184.25,226.14Z" style="fill:#37474f"></path><path d="M193.71,206h0v-16c0-5-1.87-8.86-5.13-10.74s-7-1.55-10.83.68c-7.12,4.11-12.69,14.14-12.69,22.83v16.05h0a1.62,1.62,0,0,0,1,1.34,5.13,5.13,0,0,0,4.61,0,1.62,1.62,0,0,0,1-1.34h0V202.82c0-6.36,4.32-14.22,9.43-17.17,1.74-1,3.31-1.25,4.3-.68,1.16.67,1.86,2.57,1.86,5.08v16h0a1.61,1.61,0,0,0,1,1.32,5.13,5.13,0,0,0,4.61,0,1.65,1.65,0,0,0,1-1.32h0Z" style="fill:#e0e0e0"></path></g></g></g><g id="freepik--Key--inject-255"><g id="freepik--key--inject-255"><polyline points="232.57 276.21 236.97 273.67 238.71 271.55 234.31 274.09 232.57 276.21" style="fill:#00D1FF"></polyline><polyline points="232.57 276.21 236.97 273.67 238.71 271.55 234.31 274.09 232.57 276.21" style="opacity:0.4"></polyline><polyline points="244.54 283.12 248.94 280.58 252.62 277.32 248.22 279.86 244.54 283.12" style="fill:#00D1FF"></polyline><polyline points="244.54 283.12 248.94 280.58 252.62 277.32 248.22 279.86 244.54 283.12" style="opacity:0.4"></polyline><path d="M282,291.9a9.34,9.34,0,0,1,1.82,4.79A9.52,9.52,0,0,1,282,291.9Zm10.23.13c-1.48-10.08-6.89-20-13.35-23.78-3.1-1.79-6-1.85-8.26-.51l-4.14,2.39-.24.14a4.32,4.32,0,0,0-.53.34,7.71,7.71,0,0,0-1,.78l-.14.13c-.13.13-.26.28-.38.42s-.31.36-.44.54a10.58,10.58,0,0,0-.81,1.24c-.12.22-.25.45-.36.69l-36.19-20.89-4.4,2.53v2.81l.38.21.35.21v.59l-.73.42v1.63l5.32,11.25,5.26,3,1.74-2.12,4.64,2.78,2.66,4.56,2.94,1.69,3.67-3.26,4.51,2.61,1.52,6.25,7.56,4.37a41.81,41.81,0,0,0,1.43,4.7l.17.49c2.52,6.6,6.52,12.26,11,14.87a12.39,12.39,0,0,0,1.7.81,9.65,9.65,0,0,0,.95.32,8.45,8.45,0,0,0,.84.19,7.31,7.31,0,0,0,2.68,0l.37-.09a2.29,2.29,0,0,0,.51-.15l.39-.15a3,3,0,0,0,.41-.19l.37-.19.19-.11.09-.05,4.15-2.39c3.34-1.94,5.51-6.84,5.51-13.77A35.77,35.77,0,0,0,292.18,292Z" style="fill:#00D1FF"></path><path d="M280.66,300.4c-1.73-1-3.14-4-3.14-6.65s1.41-4,3.14-3,3.15,4,3.15,6.66S282.4,301.4,280.66,300.4Zm7.13-5.83c-1.48-10.08-6.9-20.05-13.36-23.78-3-1.72-5.75-1.85-8-.66l-.24.14a4.32,4.32,0,0,0-.53.34,7.71,7.71,0,0,0-1,.78l-.14.13c-.13.13-.26.28-.38.42s-.31.36-.44.54a10.58,10.58,0,0,0-.81,1.24c-.12.22-.25.45-.36.69a17.48,17.48,0,0,0-1.4,4.28L222,256.05v2.81l.38.21.35.21v.59l-.73.42v1.63l5.32,11.25,5.26,3,1.74-2.12,4.64,2.78,2.66,4.56,2.94,1.69,3.67-3.26,4.51,2.61,1.52,6.25,7.56,4.37a41.81,41.81,0,0,0,1.43,4.7l.17.49c2.52,6.6,6.52,12.26,11,14.87a12.39,12.39,0,0,0,1.7.81,9.65,9.65,0,0,0,.95.32,8.45,8.45,0,0,0,.84.19,7.31,7.31,0,0,0,2.68,0l.37-.09a2.29,2.29,0,0,0,.51-.15l.39-.15a3,3,0,0,0,.41-.19l.37-.19.19-.11.09-.05c3.2-2,5.26-6.85,5.26-13.62A37.23,37.23,0,0,0,287.79,294.57Z" style="fill:#00D1FF"></path><path d="M283.81,297.37c0,2.68-1.41,4-3.14,3s-3.15-4-3.15-6.65,1.41-4,3.15-3A4.56,4.56,0,0,1,282,291.9a9.43,9.43,0,0,0,1.82,4.79A5.27,5.27,0,0,1,283.81,297.37Z" style="opacity:0.4"></path><path d="M292.59,297.37c0,6.93-2.17,11.83-5.51,13.77l-4.15,2.39c3.2-2,5.26-6.85,5.26-13.62a37.23,37.23,0,0,0-.4-5.34c-1.48-10.08-6.9-20.05-13.36-23.78-3-1.72-5.75-1.85-8-.66l4.14-2.39c2.3-1.34,5.16-1.28,8.26.51C285.29,272,290.7,282,292.18,292A35.77,35.77,0,0,1,292.59,297.37Z" style="fill:#fff;opacity:0.4"></path><path d="M288.19,299.91c0,6.77-2.06,11.6-5.26,13.62l4.15-2.39c3.34-1.94,5.51-6.84,5.51-13.77,0-.26,0-.52,0-.77l-4.39,2.54C288.18,299.39,288.19,299.65,288.19,299.91Z" style="fill:#00D1FF"></path><path d="M288.19,299.91c0,6.77-2.06,11.6-5.26,13.62l4.15-2.39c3.34-1.94,5.51-6.84,5.51-13.77,0-.26,0-.52,0-.77l-4.39,2.54C288.18,299.39,288.19,299.65,288.19,299.91Z" style="opacity:0.1"></path><polygon points="261.34 281.57 261.34 283 221.99 260.29 222.72 259.87 222.72 259.27 261.34 281.57" style="opacity:0.15"></polygon><polygon points="261.34 282.17 261.34 283 221.99 260.29 222.72 259.87 222.72 259.86 261.34 282.17" style="opacity:0.15"></polygon><path d="M278.46,311.18a8.44,8.44,0,0,1-4.21-1.26c-6.42-3.71-11.64-14.73-11.64-24.57,0-5.74,1.74-10,4.77-11.78,2.12-1.22,4.62-1.07,7.24.44,6.41,3.71,11.63,14.73,11.63,24.57,0,5.74-1.74,10-4.77,11.78A5.91,5.91,0,0,1,278.46,311.18Zm-8-37.69a5.3,5.3,0,0,0-2.66.71c-2.76,1.59-4.4,5.76-4.4,11.15,0,9.61,5,20.34,11.27,23.93,2.38,1.38,4.62,1.53,6.5.45,2.76-1.59,4.4-5.76,4.4-11.15,0-9.61-5-20.35-11.27-23.93A7.74,7.74,0,0,0,270.41,273.49Z" style="opacity:0.15"></path><path d="M262.58,274.41a17.48,17.48,0,0,0-1.4,4.28L222,256.05l4.4-2.53Z" style="fill:#fff;opacity:0.5"></path></g></g><g id="freepik--Character--inject-255"><g id="freepik--character--inject-255"><path d="M412,385c.15,1.37.34,5.21,7.3,6.17s11.34-1.35,13.2-4.7,1.43-6.08,1.72-9.18,2.86-4.75,3.6-6.35c1.08-2.35-.5-6-.5-6Z" style="fill:#263238"></path><path d="M361.17,374.14a4.19,4.19,0,0,0,.45,3.36,14.61,14.61,0,0,0,11.16,3,26.83,26.83,0,0,0,11.8-4.63,15.59,15.59,0,0,1,9.11-2.63c3.35-.11,5.8-.85,6.06-1.73.44-1.55.44-2.52-.29-2.48Z" style="fill:#263238"></path><path d="M435.66,359.58c-.87,6.35-13.18,5.84-12.18.77l-2.19-15.41,13.93.43Z" style="fill:#ffa8a7"></path><path d="M412.46,381.88c.62-1.15,2.41-2.79,3.2-3.82a34.43,34.43,0,0,0,7.24-18.47c0-.37.07-1.09.45-1.32s.75.09,1.15.27l0,0v0a7.61,7.61,0,0,0,2.16.56c2.46.28,5.19-.31,5.8-.23s.63,1.55.59,3.15c.88-.55,1.17-1.65,1.95-2.29.43-.35.62-.36.61-.93,0-.37,0-.71,0-1.08.64-.18,1.17,2.24,1.69,4.09.6,2.15,1.35,4.57.51,6.75a18.35,18.35,0,0,1-2,3.36,13.82,13.82,0,0,0-2.52,6.16c-.1,1,0,2-.16,2.94a8.64,8.64,0,0,1-6.07,7.07c-4.25,1.32-10.62,1.11-14.36-1.85C411.4,385.21,411.84,383,412.46,381.88Z" style="fill:#37474f"></path><path d="M396.62,358.52c-3.38,2.62-7.44,4.16-11.59,2.27l-1-25.93,14,2.51Z" style="fill:#ffa8a7"></path><path d="M364,369.66c.93-.3,1.84-.63,2.74-1A50.69,50.69,0,0,0,374,365c1-.62,2-1.27,3-2s2-1.52,3-2.32a10.17,10.17,0,0,0,1.41-1.52,15.53,15.53,0,0,0,2.1-3.38,1.22,1.22,0,0,1,.52-.69,1,1,0,0,1,1,.2,5.19,5.19,0,0,0,.77.52l.82.34a9.56,9.56,0,0,0,2.74.67c3.54.31,3.65-.4,3.8.74a8.09,8.09,0,0,1,0,1.28c1.87-.31,3.34-.91,3.42-1.62l.22-2.26c1.86-.17,2,3.16,2.6,6.9.49,3,1.22,5.21.38,7.44-2.81,2.45-7.77,1.86-10.59,2.32-4,.66-5.87,3.62-11.42,5.54-9,3.1-14.61-.47-16.29-2C360.39,373.23,360.17,370.88,364,369.66Z" style="fill:#37474f"></path><path d="M431.73,205.18c.71,11,2,27.11,2.45,39.82.84,23.88.51,51.11.51,51.11a82.42,82.42,0,0,1,2.57,15.3c.57,15.26.47,49.52.47,49.52s-6.33,6.37-15.79,1.37c0,0-8.39-48-10.73-63.08-2.24-14.35-6.61-43-6.61-43l-2,40.72a62.75,62.75,0,0,1,1.49,19.55c-.51,7-4.5,41.51-4.5,41.51-3.64,3.41-14.24,1.55-16.56-1.16,0,0-3.71-51-4.13-58.38-.89-15.93-3.26-75.34-2.07-84.56S431.73,205.18,431.73,205.18Z" style="fill:#263238"></path><path d="M404.6,256.18l-2.78-18.38s-7.63-1.44-13.21-5.58c0,0,2.17,4.91,10.61,8.41L402,257.75l.66,39.15Z"></path><path d="M420.19,131.43c.51,2.07,4,1.75,5.56,1.36a3.87,3.87,0,0,0,3.06-4.12,4.25,4.25,0,0,0,2.05-1.25A3,3,0,0,0,431,124a4.24,4.24,0,0,0,1.74-4.05,4.68,4.68,0,0,0-1.72-2.81,4.89,4.89,0,0,0-3.06-1.09c-.36,0-.72.72-.2.78a5.36,5.36,0,0,1,2.23,1,4.27,4.27,0,0,1,1.52,1.92,3.16,3.16,0,0,1-1.08,3.44,4.56,4.56,0,0,0-.61-.63,3.55,3.55,0,0,0-2.54-.9,1.82,1.82,0,0,0-1.67,1c-.24.78.57,1.44,1.17,1.78a3.52,3.52,0,0,0,2.89.26,2.18,2.18,0,0,0,.23-.09,3.09,3.09,0,0,1,.14.32c.54,1.43-.33,2.32-1.5,2.72-.71-1.47-2.63-2.54-4.17-1.77A1.29,1.29,0,0,0,424,128a3.44,3.44,0,0,0,2.37.94,8.25,8.25,0,0,0,1.21,0,2.64,2.64,0,0,1-.42,1.83,3.68,3.68,0,0,1-2.91,1.24,4.76,4.76,0,0,1-3.43-1.09C420.53,130.67,420.11,131.12,420.19,131.43Zm9.13-7.68a2.29,2.29,0,0,1-1.93-.32c-.42-.28-.89-.69-.14-.74A2.61,2.61,0,0,1,429.32,123.75Zm-2.09,4.15a4.65,4.65,0,0,1-1.26-.12c-.3-.07-1.61-.74-.94-1,.51-.23,1.41.28,1.77.6A2.55,2.55,0,0,1,427.23,127.9Z" style="fill:#263238"></path><path d="M422.62,92.75a5.85,5.85,0,0,1,.65.13,3,3,0,0,1,1.6-3.37,3.22,3.22,0,0,1,4.15,1.7l-4.53,2.07a6.37,6.37,0,0,1,3.45,2.94c1.24,2.56-.4,8-2.05,14.7a94.35,94.35,0,0,1-3.65,12.44c-.76,2-2.13,2-2.13,2v-6.69l.29-5.55s-3.56-4.87-3.95-8.86c-.51-5.13.57-7.23.57-7.23Z" style="fill:#263238"></path><path d="M398,87a11.3,11.3,0,1,1-11.32,11.26A11.29,11.29,0,0,1,398,87Z" style="fill:#263238"></path><path d="M420.19,112.24c1.34,1.16,2.43-1.84,3.56-3s4.79-2.77,6.61,1.09-1.68,9.27-4.43,10.54c-4,1.87-5.82-2.18-5.82-2.18v16.75c-4.23,7.62-13.38,5.84-17.71,6.91a9.53,9.53,0,0,1,0-6l0-5.45a20.22,20.22,0,0,1-5.53.29c-3.66-.58-5.62-3.59-6.71-7.55-1.76-6.36-2.13-17.05.32-29.4C394.58,91.08,408.43,91.6,417,97,416.4,108,418.85,111.08,420.19,112.24Z" style="fill:#ffa8a7"></path><path d="M402.41,130.9s8.16-1.61,11-3.12a9.32,9.32,0,0,0,4-3.89,12.81,12.81,0,0,1-2.26,4.6c-2.09,2.66-12.73,4.59-12.73,4.59Z" style="fill:#f28f8f"></path><path d="M384.89,105.63a3.24,3.24,0,0,0,.75,1.75,1.85,1.85,0,0,1,.3.63,31.12,31.12,0,0,0,1,4.72,5.21,5.21,0,0,0,5,3.45,7.69,7.69,0,0,0,1.72-.11.42.42,0,0,0,.13,0,4.87,4.87,0,0,0,1.42-.52l.08,0,.13-.08.14-.11a.45.45,0,0,0,.14-.1.61.61,0,0,0,.16-.12L396,115l.28-.27a6.73,6.73,0,0,0,1.15-1.77c.77-1.63.62-3.94,1.82-4.17a.8.8,0,0,0,.15,0h.16c1.64.06,1.4,2.56,2.28,4.37a6.09,6.09,0,0,0,5.9,3.7h.45l.37,0a6.85,6.85,0,0,0,.85-.1l.27-.06.26-.07.16,0a5.87,5.87,0,0,0,1-.43c.11-.08.22-.14.33-.21a6.44,6.44,0,0,0,.56-.48,5.21,5.21,0,0,0,1.1-1.65,28.13,28.13,0,0,0,1.07-4.64,2,2,0,0,1,.28-.67,3.16,3.16,0,0,0,.83-1.66,1.45,1.45,0,0,0-1-1.5l-.86-.14c-2.79-.39-6.43-.61-8.62-.06-2.76.69-3.73,1.55-5.25,1.5s-2.32-1-4.91-1.89c-2-.72-5.46-.75-8.06-.57-.29,0-.54,0-.81.06C385.33,104.21,384.85,104.88,384.89,105.63Zm17.95,2.06a2.3,2.3,0,0,1,.79-.61,1.09,1.09,0,0,1,.15-.08l.07,0a4.21,4.21,0,0,0,.39-.17c.11,0,.24-.08.36-.13a9.61,9.61,0,0,1,1.18-.35l.47-.1c.39-.07.8-.13,1.2-.17h.29c2.63-.16,4.26.49,4.84,1s.28,3,0,4.22c0,0,0,.07,0,.09a.19.19,0,0,1,0,.1,3.48,3.48,0,0,1-.12.49,1.81,1.81,0,0,1-.09.31h0c-.06.17-.12.34-.19.52a.53.53,0,0,1-.08.17.27.27,0,0,1-.05.11s0,.07,0,.11l-.08.15c0,.06-.06.11-.1.16a.62.62,0,0,1-.11.17,1,1,0,0,1-.11.17,4.12,4.12,0,0,1-3.71,1.67A5.06,5.06,0,0,1,404,114a5.42,5.42,0,0,1-1.23-2.52C402.47,110.05,402.31,108.43,402.84,107.69Zm-15.45-1.58a1.77,1.77,0,0,1,.65-.4.06.06,0,0,1,0,0l.28-.11.17,0,.15,0,.1,0,0,0,.15,0a5.58,5.58,0,0,1,.61-.09l.33,0h.19a.44.44,0,0,0,.16,0,3,3,0,0,1,.42,0h.3a11.12,11.12,0,0,1,1.21.13c1.87.31,3.82,1.22,4.31,2s.35,2.37.08,3.75a7.06,7.06,0,0,1-.25.91.11.11,0,0,0,0,.07.42.42,0,0,1,0,.1s0,0,0,.06a1.17,1.17,0,0,1-.05.11c0,.08-.07.15-.11.22a1.86,1.86,0,0,1-.1.2l0,.06-.08.14-.08.11h0a4.12,4.12,0,0,1-3.94,1.71,4.53,4.53,0,0,1-2-.52c-1.84-1-2.27-3.08-2.48-4C387.13,109.08,386.82,106.62,387.39,106.11Z" style="fill:#263238"></path><path d="M414.1,105.3l12,2.69a5.2,5.2,0,0,0-2.75,1.77L414.09,108Z" style="fill:#263238"></path><path d="M387.39,110.34c.21,1,.64,3.07,2.48,4a4.53,4.53,0,0,0,2,.52,4.12,4.12,0,0,0,3.94-1.71h0l.08-.11.08-.14,0-.06a1.86,1.86,0,0,0,.1-.2c0-.07.07-.14.11-.22a1.17,1.17,0,0,0,.05-.11s0,0,0-.06a.42.42,0,0,0,0-.1.11.11,0,0,1,0-.07,7.06,7.06,0,0,0,.25-.91c.27-1.38.42-3-.08-3.75s-2.44-1.7-4.31-2a11.12,11.12,0,0,0-1.21-.13h-.3a3,3,0,0,0-.42,0,.44.44,0,0,1-.16,0h-.19l-.33,0a5.58,5.58,0,0,0-.61.09l-.15,0,0,0-.1,0-.15,0-.17,0-.28.11a.06.06,0,0,0,0,0,1.77,1.77,0,0,0-.65.4C386.82,106.62,387.13,109.08,387.39,110.34Z" style="fill:#37474f"></path><path d="M402.77,111.44A5.42,5.42,0,0,0,404,114a5.06,5.06,0,0,0,3.86,1.56,4.12,4.12,0,0,0,3.71-1.67,1,1,0,0,0,.11-.17.62.62,0,0,0,.11-.17c0-.05.06-.1.1-.16l.08-.15s0-.07,0-.11a.27.27,0,0,0,.05-.11.53.53,0,0,0,.08-.17c.07-.18.13-.35.19-.52h0a1.81,1.81,0,0,0,.09-.31,3.48,3.48,0,0,0,.12-.49.19.19,0,0,0,0-.1s0-.06,0-.09c.27-1.22.6-3.66,0-4.22s-2.21-1.21-4.84-1h-.29c-.4,0-.81.1-1.2.17l-.47.1a9.61,9.61,0,0,0-1.18.35c-.12,0-.25.08-.36.13a4.21,4.21,0,0,1-.39.17l-.07,0a1.09,1.09,0,0,0-.15.08,2.3,2.3,0,0,0-.79.61C402.31,108.43,402.47,110.05,402.77,111.44Z" style="fill:#37474f"></path><path d="M387.71,85.51c0-.13,0-.27.05-.41a1.29,1.29,0,0,1,.27-.71c.55-.57,1.65.87,2,1.2a14.78,14.78,0,0,0,1.17.92,8.89,8.89,0,0,1,1.1.65,11.58,11.58,0,0,1,0-4.11c.17-.9.42-3,1.54-3.21.66-.14,1.24.42,1.73.88,4.47,4.18,10.31,2.25,15.69,2.42,4.51.14,9.94,2,12,6.36.93,2,1.09,4.11-.75,5.49-1.18.9-2.34.86-3,2.29-.16.35-1.19,4.61-.58,4.57a4.69,4.69,0,0,1-5-3.43c-.11-.47-.36-1.32-.46-1.8a1,1,0,0,0-1.29-.78c-1.37.3-2.26.86-3.55,1.21a25.91,25.91,0,0,1-11.34.67,13.46,13.46,0,0,1-7.12-3.82A10.7,10.7,0,0,1,387.71,85.51Z" style="fill:#263238"></path><path d="M405.28,103.09l4,.61a2.09,2.09,0,0,0-1.72-2.33A2,2,0,0,0,405.28,103.09Z" style="fill:#263238"></path><path d="M404.36,121.47l-3.33.87a1.69,1.69,0,0,0,2.06,1.29A1.81,1.81,0,0,0,404.36,121.47Z" style="fill:#f28f8f"></path><path d="M390.3,103.32l4-.44a1.94,1.94,0,0,0-2.15-1.81A2.12,2.12,0,0,0,390.3,103.32Z" style="fill:#263238"></path><path d="M400,108.82l-.54,9.33-5.2-1.36,5.19-8.08A1.23,1.23,0,0,1,400,108.82Z" style="fill:#f28f8f"></path><path d="M422.34,115.3a2.44,2.44,0,1,0,2.44-2.43A2.43,2.43,0,0,0,422.34,115.3Z" style="fill:#263238"></path><path d="M422.08,110.85a5.24,5.24,0,0,1,1.08-2,2.43,2.43,0,0,1,1.93-.66s.07.08,0,.1c-.27.16-.46.25-.73.44a4.41,4.41,0,0,0-.74.63,2.84,2.84,0,0,0-.47.76,3.43,3.43,0,0,0-.28,1,3.11,3.11,0,0,0,.23,1.6,2.86,2.86,0,0,0,.46.77,2.75,2.75,0,0,1,.54.59c.15.31-.28.84-.61.66a3.2,3.2,0,0,1-1.33-1.69A3.12,3.12,0,0,1,422.08,110.85Z" style="fill:#263238"></path><path d="M387.42,144.07c-3.38,2.22-8.05,5.1-9.19,8.23s-4.43,21.28-4.79,27.13a30,30,0,0,0,9.5,2.68Z" style="fill:#455a64"></path><path d="M427.35,135.42c8.56,4.7,17,11.72,18.82,14.42,0,0-5,16.67-9.41,24.58s-6.77,31.3-6.77,31.3-30.16,10-39.61,10.79-10.65-3.23-10.65-3.23-.2-26.15,2-43.6,1.72-22.64,5.72-25.61c2.59-1.91,13.75-6.75,13.75-6.75v5C407.3,142.44,427.35,135.42,427.35,135.42Z" style="fill:#37474f"></path><path d="M398.85,145a6.64,6.64,0,0,1-.64-3.64l2.52-1.83,0,3.17Z" style="fill:#00D1FF"></path><path d="M398.85,145a6.64,6.64,0,0,1-.64-3.64l2.52-1.83,0,3.17Z" style="opacity:0.25"></path><polygon points="403.75 143.07 410.27 139.35 415.17 143.23 405.27 147.34 403.75 143.07" style="fill:#00D1FF"></polygon><polygon points="403.75 143.07 410.27 139.35 415.17 143.23 405.27 147.34 403.75 143.07" style="opacity:0.25"></polygon><path d="M420.11,128.34v1.32c-.25,1.25-2.71,4.15-8.92,6.93s-8.79,5.75-8.79,5.75a16.09,16.09,0,0,1,4.92.91c2.83,1,7.53,4.6,8.87,4.56s3.19-3.74,6.7-7.43c3-3.1,4.46-5,4.46-5S422.53,128.37,420.11,128.34Z" style="fill:#455a64"></path><path d="M402.4,142.34c-2.25.25-4.36,1.81-4.91,1s1.36-8.34,4.89-10.63Z" style="fill:#455a64"></path><path d="M380.6,181.8s-.27,4.67-.34,6.27,2.6,29,2.6,29l-9.42,4s-1.14-10.56-1.51-16.44a95.68,95.68,0,0,1,.81-18.13c.74-5,1-6.92,1-6.92A35.1,35.1,0,0,0,380.6,181.8Z" style="fill:#f28f8f"></path><path d="M374.2,234.46s0,.42,0,2a35.7,35.7,0,0,0,1.58,7.78c.59,1.48,2,4.73,2.74,5.11a3.58,3.58,0,0,0,2.3.41c1.49-.14,3.05.63,4.46-.05A8.66,8.66,0,0,1,387,249c.87-.21,1.87.05,2.65-.41.5-.29.81-.83,1.3-1.13.72-.44,1.67-.28,2.44-.63a2.53,2.53,0,0,0,1.27-1.52c.44-1.32,0-2.81-.26-4.13a3.63,3.63,0,0,0,.67-2.23,19.24,19.24,0,0,0-.59-5.07c-.33-1-7.17-4.89-7.17-4.89l-1.35-.89a11.51,11.51,0,0,0-8.4,1.35C373.55,232,374.2,234.46,374.2,234.46Z" style="fill:#ffa8a7"></path><path d="M376.05,234.27c-1.81,3-.75,8.41-.74,8.47a33.65,33.65,0,0,1-1.11-6.26c0-1.6,0-2,0-2s-.65-2.5,3.31-5a11.51,11.51,0,0,1,8.4-1.35S377.86,231.24,376.05,234.27Z" style="fill:#f28f8f"></path><path d="M394.35,241.15a17,17,0,0,0-2.91-5.37c-.76-.7-1.4-1.59-.64-1.29s1.82.47,2.24-.06.51.39,0,1.11-.08,1.27.47,2.45A12.06,12.06,0,0,1,394.35,241.15Z" style="fill:#f28f8f"></path><path d="M443.56,150.17c2.85,1,3.23,8.8,2.61,15.8s-6.08,23.55-8.57,29.31c-2.79,6.47-4.48,10.2-6.34,12.23s-5.75,3.7-10.73,6.28c-4.5,2.33-7.58,3.51-15.26,5.89-8.66,2.69-12,2.85-13.84,4.14s-2.36,4.09-4.17,5.14l-1.35-.89a29.23,29.23,0,0,0-8.61,3.6,11.79,11.79,0,0,0-3.1,2.79v2s-2.19.92-4.05-3-2.71-9.8-.57-12.37S378.5,215,384,213.28s8.23-3.52,14.65-7.4c6.84-4.13,11.59-6.88,15-8.74,1.29-.75,2.16-1.66,2.74-4,.46-1.88,1.83-7.44,2.67-11.62C420.4,174.53,423.41,153.39,443.56,150.17Z" style="fill:#ffa8a7"></path><path d="M446.17,149.84s1.33.23,1.51,5.77a84.67,84.67,0,0,1-.75,15.69c-.73,4.25-5,16.8-5,16.8s-12.27,4-24.83-.77c0,0,2.95-18.1,4.06-22.9S437.82,144.82,446.17,149.84Z" style="fill:#455a64"></path><path d="M402.75,150.2c-.7,4.5-1.66,15.19-1.66,30.28,0,3.7-5.4,11.21-6.67,11.05s-3.6-7.22-3.93-11.32c.51-9.92,6.51-25.31,9.13-30.57Z" style="fill:#00D1FF"></path><path d="M399.42,150.07a4.28,4.28,0,0,1,.2-.43l3.13.56-.19,1.32A5.39,5.39,0,0,1,399.42,150.07Z" style="opacity:0.15"></path><path d="M403.75,143.07a13.57,13.57,0,0,0-3-.36,7.07,7.07,0,0,0-1.92,2.3,10.72,10.72,0,0,0,.77,4.63,3.77,3.77,0,0,0,3.13.56,6.62,6.62,0,0,0,2.52-2.86A6,6,0,0,0,403.75,143.07Z" style="fill:#00D1FF"></path></g></g></svg>